<svg width="35" height="34" viewBox="0 0 35 34" fill="none" xmlns="http://www.w3.org/2000/svg">
<path d="M14.6667 9.91667L13.9357 11.8915C12.978 14.4812 12.4992 15.776 11.5542 16.7209C10.6093 17.6658 9.3145 18.1447 6.72483 19.1023L4.75 19.8333L6.72483 20.5643C9.3145 21.522 10.6093 22.0023 11.5542 22.9458C12.4992 23.8893 12.978 25.1855 13.9357 27.7752L14.6667 29.75L15.3977 27.7752C16.3553 25.1855 16.8356 23.8907 17.7791 22.9458C18.7226 22.0008 20.0188 21.522 22.6085 20.5643L24.5833 19.8333L22.6085 19.1023C20.0188 18.1447 18.724 17.6658 17.7791 16.7209C16.8342 15.776 16.3553 14.4812 15.3977 11.8915L14.6667 9.91667ZM26 4.25L25.6869 5.09575C25.2761 6.20642 25.0707 6.76175 24.6669 7.1655C24.2617 7.57067 23.7064 7.77608 22.5957 8.1855L21.75 8.5L22.5972 8.81308C23.7064 9.22392 24.2618 9.42933 24.6655 9.83308C25.0707 10.2382 25.2761 10.7936 25.6855 11.9042L26 12.75L26.3131 11.9042C26.7239 10.7936 26.9293 10.2382 27.3331 9.8345C27.7382 9.42933 28.2936 9.22392 29.4042 8.8145L30.25 8.5L29.4028 8.18692C28.2936 7.77608 27.7382 7.57067 27.3345 7.16692C26.9293 6.76175 26.7239 6.20642 26.3145 5.09575L26 4.25Z" stroke="url(#paint0_linear_34_314)" stroke-width="2" stroke-linecap="round" stroke-linejoin="round"/>
<defs>
<linearGradient id="paint0_linear_34_314" x1="17.5" y1="4.25" x2="17.5" y2="29.75" gradientUnits="userSpaceOnUse">
<stop stop-color="#000C76"/>
<stop offset="1" stop-color="#008FCC"/>
</linearGradient>
</defs>
</svg>
