<svg width="12" height="12" viewBox="0 0 12 12" fill="none" xmlns="http://www.w3.org/2000/svg">
<path d="M10.6091 0.238644C10.9273 -0.0795471 11.4432 -0.0795472 11.7614 0.238644C12.0795 0.556835 12.0795 1.07272 11.7614 1.39091L1.39091 11.7614C1.07272 12.0795 0.556834 12.0795 0.238643 11.7614C-0.0795477 11.4432 -0.0795477 10.9273 0.238643 10.6091L10.6091 0.238644Z" fill="#000C76"/>
<path d="M11.7614 10.6091C12.0795 10.9273 12.0795 11.4432 11.7614 11.7614C11.4432 12.0795 10.9273 12.0795 10.6091 11.7614L0.238644 1.39091C-0.0795473 1.07272 -0.0795473 0.556834 0.238644 0.238643C0.556835 -0.0795477 1.07272 -0.0795477 1.39092 0.238643L11.7614 10.6091Z" fill="#000C76"/>
</svg>
