<svg width="28" height="28" viewBox="0 0 28 28" fill="none" xmlns="http://www.w3.org/2000/svg">
<path d="M11.1667 6.91667L10.4357 8.8915C9.478 11.4812 8.99917 12.776 8.05425 13.7209C7.10933 14.6658 5.8145 15.1447 3.22483 16.1023L1.25 16.8333L3.22483 17.5643C5.8145 18.522 7.10933 19.0023 8.05425 19.9458C8.99917 20.8893 9.478 22.1855 10.4357 24.7752L11.1667 26.75L11.8977 24.7752C12.8553 22.1855 13.3356 20.8907 14.2791 19.9458C15.2226 19.0008 16.5188 18.522 19.1085 17.5643L21.0833 16.8333L19.1085 16.1023C16.5188 15.1447 15.224 14.6658 14.2791 13.7209C13.3342 12.776 12.8553 11.4812 11.8977 8.8915L11.1667 6.91667ZM22.5 1.25L22.1869 2.09575C21.7761 3.20642 21.5707 3.76175 21.1669 4.1655C20.7617 4.57067 20.2064 4.77608 19.0957 5.1855L18.25 5.5L19.0972 5.81308C20.2064 6.22392 20.7618 6.42933 21.1655 6.83308C21.5707 7.23825 21.7761 7.79358 22.1855 8.90425L22.5 9.75L22.8131 8.90425C23.2239 7.79358 23.4293 7.23825 23.8331 6.8345C24.2382 6.42933 24.7936 6.22392 25.9042 5.8145L26.75 5.5L25.9028 5.18692C24.7936 4.77608 24.2382 4.57067 23.8345 4.16692C23.4293 3.76175 23.2239 3.20642 22.8145 2.09575L22.5 1.25Z" stroke="white" stroke-width="1.5" stroke-linecap="round" stroke-linejoin="round"/>
</svg>
